<svg xmlns="http://www.w3.org/2000/svg" version="1.1" xmlns:xlink="http://www.w3.org/1999/xlink" xmlns:svgjs="http://svgjs.dev/svgjs" width="1440" height="800" preserveAspectRatio="none" viewBox="0 0 1440 800"><g mask="url(&quot;#SvgjsMask3262&quot;)" fill="none"><rect width="1440" height="800" x="0" y="0" fill="rgba(249, 250, 251, 1)"></rect><rect width="389.2" height="389.2" clip-path="url(&quot;#SvgjsClipPath3263&quot;)" x="17.43" y="88.76" fill="url(&quot;#SvgjsPattern3264&quot;)" transform="rotate(97.12, 212.03, 283.36)"></rect><rect width="119.28" height="119.28" clip-path="url(&quot;#SvgjsClipPath3265&quot;)" x="1050.11" y="363.33" fill="url(&quot;#SvgjsPattern3266&quot;)" transform="rotate(41.73, 1109.75, 422.97)"></rect><path d="M793.76 466.09a5.6 5.6 0 1 0 8.03 7.81 5.6 5.6 0 1 0-8.03-7.81zM805.23 477.25a5.6 5.6 0 1 0 8.03 7.81 5.6 5.6 0 1 0-8.03-7.81zM816.7 488.41a5.6 5.6 0 1 0 8.02 7.81 5.6 5.6 0 1 0-8.02-7.81zM828.16 499.57a5.6 5.6 0 1 0 8.03 7.81 5.6 5.6 0 1 0-8.03-7.81zM759.67 455.24a5.6 5.6 0 1 0 8.03 7.81 5.6 5.6 0 1 0-8.03-7.81zM771.14 466.4a5.6 5.6 0 1 0 8.02 7.81 5.6 5.6 0 1 0-8.02-7.81zM782.6 477.56a5.6 5.6 0 1 0 8.03 7.81 5.6 5.6 0 1 0-8.03-7.81zM794.07 488.71a5.6 5.6 0 1 0 8.03 7.82 5.6 5.6 0 1 0-8.03-7.82zM725.58 444.39a5.6 5.6 0 1 0 8.02 7.81 5.6 5.6 0 1 0-8.02-7.81zM737.04 455.55a5.6 5.6 0 1 0 8.03 7.81 5.6 5.6 0 1 0-8.03-7.81zM748.51 466.71a5.6 5.6 0 1 0 8.03 7.81 5.6 5.6 0 1 0-8.03-7.81zM759.98 477.86a5.6 5.6 0 1 0 8.02 7.82 5.6 5.6 0 1 0-8.02-7.82z" fill="#e73635"></path><rect width="322" height="322" clip-path="url(&quot;#SvgjsClipPath3267&quot;)" x="527.07" y="374.24" fill="url(&quot;#SvgjsPattern3268&quot;)" transform="rotate(189.28, 688.07, 535.24)"></rect><circle r="120.53019092170497" cx="1043.48" cy="340.52" stroke="rgba(243, 159, 25, 1)" stroke-width="1" stroke-dasharray="3, 2"></circle><rect width="312" height="312" clip-path="url(&quot;#SvgjsClipPath3269&quot;)" x="510.19" y="274.1" fill="url(&quot;#SvgjsPattern3270&quot;)" transform="rotate(222.36, 666.19, 430.1)"></rect><circle r="66.66666666666667" cx="1010.91" cy="8.35" stroke="#037b0b" stroke-width="1"></circle><path d="M1205.03 722.07a5.6 5.6 0 1 0 10.91 2.51 5.6 5.6 0 1 0-10.91-2.51zM1220.62 725.66a5.6 5.6 0 1 0 10.92 2.5 5.6 5.6 0 1 0-10.92-2.5zM1236.21 729.24a5.6 5.6 0 1 0 10.92 2.51 5.6 5.6 0 1 0-10.92-2.51zM1251.81 732.82a5.6 5.6 0 1 0 10.91 2.51 5.6 5.6 0 1 0-10.91-2.51zM1170.26 730.5a5.6 5.6 0 1 0 10.91 2.51 5.6 5.6 0 1 0-10.91-2.51zM1185.85 734.08a5.6 5.6 0 1 0 10.92 2.51 5.6 5.6 0 1 0-10.92-2.51zM1201.44 737.67a5.6 5.6 0 1 0 10.92 2.5 5.6 5.6 0 1 0-10.92-2.5zM1217.04 741.25a5.6 5.6 0 1 0 10.91 2.51 5.6 5.6 0 1 0-10.91-2.51z" fill="rgba(243, 159, 25, 1)"></path><path d="M1511.69 809.68 L1281.6100000000001 851.93L1305.7079663332593 739.8629663332591z" fill="rgba(243, 159, 25, 1)"></path></g><defs><mask id="SvgjsMask3262"><rect width="1440" height="800" fill="#ffffff"></rect></mask><pattern x="0" y="0" width="13.9" height="13.9" patternUnits="userSpaceOnUse" id="SvgjsPattern3264"><path d="M0 13.9L6.95 0L13.9 13.9" stroke="#037b0b" fill="none"></path></pattern><clipPath id="SvgjsClipPath3263"><circle r="97.3" cx="212.03" cy="283.36"></circle></clipPath><pattern x="0" y="0" width="119.28" height="9.94" patternUnits="userSpaceOnUse" id="SvgjsPattern3266"><rect width="119.28" height="4.97" x="0" y="0" fill="#e73635"></rect><rect width="119.28" height="4.97" x="0" y="4.97" fill="rgba(0, 0, 0, 0)"></rect></pattern><clipPath id="SvgjsClipPath3265"><circle r="29.82" cx="1109.75" cy="422.97"></circle></clipPath><pattern x="0" y="0" width="7" height="7" patternUnits="userSpaceOnUse" id="SvgjsPattern3268"><path d="M0 7L3.5 0L7 7" stroke="#e73635" fill="none"></path></pattern><clipPath id="SvgjsClipPath3267"><circle r="80.5" cx="688.07" cy="535.24"></circle></clipPath><pattern x="0" y="0" width="312" height="6" patternUnits="userSpaceOnUse" id="SvgjsPattern3270"><rect width="312" height="3" x="0" y="0" fill="rgba(243, 159, 25, 1)"></rect><rect width="312" height="3" x="0" y="3" fill="rgba(0, 0, 0, 0)"></rect></pattern><clipPath id="SvgjsClipPath3269"><circle r="78" cx="666.19" cy="430.1"></circle></clipPath></defs></svg>