<svg width="46" height="46" viewBox="0 0 46 46" fill="none" xmlns="http://www.w3.org/2000/svg">
<rect width="46" height="46" rx="23" fill="#FFF1F1"/>
<path d="M34 21C34 19.89 33.1 19 32 19H25.68L26.64 14.43C26.66 14.33 26.67 14.22 26.67 14.11C26.67 13.7 26.5 13.32 26.23 13.05L25.17 12L18.59 18.58C18.22 18.95 18 19.45 18 20V30C18 30.5304 18.2107 31.0391 18.5858 31.4142C18.9609 31.7893 19.4696 32 20 32H29C29.83 32 30.54 31.5 30.84 30.78L33.86 23.73C33.95 23.5 34 23.26 34 23V21ZM12 32H16V20H12V32Z" fill="#E91919"/>
</svg>
