<svg width="46" height="46" viewBox="0 0 46 46" fill="none" xmlns="http://www.w3.org/2000/svg">
<rect width="46" height="46" rx="23" fill="#EFF6FF"/>
<path d="M23 30.2C20.5 30.2 18.29 28.92 17 27C17.03 25 21 23.9 23 23.9C25 23.9 28.97 25 29 27C27.71 28.92 25.5 30.2 23 30.2ZM23 16C23.7956 16 24.5587 16.3161 25.1213 16.8787C25.6839 17.4413 26 18.2044 26 19C26 19.7956 25.6839 20.5587 25.1213 21.1213C24.5587 21.6839 23.7956 22 23 22C22.2044 22 21.4413 21.6839 20.8787 21.1213C20.3161 20.5587 20 19.7956 20 19C20 18.2044 20.3161 17.4413 20.8787 16.8787C21.4413 16.3161 22.2044 16 23 16ZM23 13C21.6868 13 20.3864 13.2587 19.1732 13.7612C17.9599 14.2638 16.8575 15.0003 15.9289 15.9289C14.0536 17.8043 13 20.3478 13 23C13 25.6522 14.0536 28.1957 15.9289 30.0711C16.8575 30.9997 17.9599 31.7362 19.1732 32.2388C20.3864 32.7413 21.6868 33 23 33C25.6522 33 28.1957 31.9464 30.0711 30.0711C31.9464 28.1957 33 25.6522 33 23C33 17.47 28.5 13 23 13Z" fill="#3B82F6"/>
</svg>
