<svg width="46" height="46" viewBox="0 0 46 46" fill="none" xmlns="http://www.w3.org/2000/svg">
<rect width="46" height="46" rx="23" fill="#FFF1F1"/>
<path d="M25.1 19.5L23 17.4L20.9 19.5L19.5 18.1L21.6 16L19.5 13.9L20.9 12.5L23 14.6L25.1 12.5L26.5 13.9L24.4 16L26.5 18.1L25.1 19.5ZM18 29C19.1 29 20 29.9 20 31C20 32.1 19.1 33 18 33C16.9 33 16 32.1 16 31C16 29.9 16.9 29 18 29ZM28 29C29.1 29 30 29.9 30 31C30 32.1 29.1 33 28 33C26.9 33 26 32.1 26 31C26 29.9 26.9 29 28 29ZM18.2 25.8C18.2 25.9 18.3 26 18.4 26H30V28H18C16.9 28 16 27.1 16 26C16 25.6 16.1 25.3 16.2 25L17.5 22.6L14 15H12V13H15.3L19.6 22H26.6L30.5 15L32.2 16L28.3 23C28 23.6 27.3 24 26.6 24H19.1L18.2 25.6V25.8Z" fill="#E91919"/>
</svg>
